<svg id="a52e6238-9bb6-4693-83e5-da2b4e034172" data-name="Layer 1" xmlns="http://www.w3.org/2000/svg" viewBox="0 0 200 200"><defs><style>.ec8bfa23-65ce-42f0-b0d4-211846b64903,.fd4bbf48-3ff1-4809-8a1d-09d2628c867a{fill:#fff;}.fd4bbf48-3ff1-4809-8a1d-09d2628c867a{fill-rule:evenodd;}</style></defs><path class="ec8bfa23-65ce-42f0-b0d4-211846b64903" d="M99,171.15a69.23,69.23,0,1,1,69.23-69.23A69.31,69.31,0,0,1,99,171.15ZM99,39.38a62.54,62.54,0,1,0,62.54,62.54A62.61,62.61,0,0,0,99,39.38Z"/><path class="fd4bbf48-3ff1-4809-8a1d-09d2628c867a" d="M102.74,144.53h-7.5a3.76,3.76,0,0,1-2.82-1.28l-2.16-2.47h17.45l-2.15,2.47A3.79,3.79,0,0,1,102.74,144.53Zm7-11.24a1.88,1.88,0,1,1,0,3.75H88.25a1.88,1.88,0,1,1,0-3.75ZM99,69.6c11.18,0,22.5,7.38,22.5,21.48,0,7.26-3.64,13.57-7.15,19.68-3.39,5.9-6.9,12-6.91,18.78h3.76c0-12.31,14-22.86,14-38.46,0-16.26-13.12-25.23-26.24-25.23s-26.21,9-26.21,25.23c0,15.6,14,26.15,14,38.46h3.75c0-6.79-3.51-12.88-6.9-18.78-3.52-6.11-7.15-12.42-7.15-19.68C76.51,77,87.81,69.6,99,69.6ZM134.3,99.41a1.88,1.88,0,0,1-1.55,3.42l-3.41-1.55a1.87,1.87,0,1,1,1.54-3.41Zm-70.62,0a1.88,1.88,0,0,0,1.55,3.42l3.41-1.55a1.87,1.87,0,0,0-1.55-3.41Zm70.9-11.08h-3.75a1.88,1.88,0,0,1,0-3.75h3.75a1.88,1.88,0,0,1,0,3.75ZM67.14,84.58a1.88,1.88,0,1,1,0,3.75H63.4a1.88,1.88,0,1,1,0-3.75Zm63-11.57A1.87,1.87,0,1,0,128,69.93l-3.08,2.14a1.88,1.88,0,0,0,2.14,3.08ZM67.82,73A1.88,1.88,0,1,1,70,69.93L73,72.07a1.88,1.88,0,0,1-2.14,3.08Zm50-11.36a1.87,1.87,0,0,0-3.27-1.83l-1.83,3.27A1.87,1.87,0,1,0,116,64.92Zm-37.58,0a1.87,1.87,0,1,1,3.27-1.83l1.83,3.27A1.87,1.87,0,0,1,82,64.92Zm20.66-5.16a1.87,1.87,0,1,0-3.74,0v3.74a1.87,1.87,0,1,0,3.74,0Z"/></svg>