<svg id="a54f361c-e9d9-4bc3-ab2c-3637f38c831d" data-name="Layer 1" xmlns="http://www.w3.org/2000/svg" viewBox="0 0 200 200"><defs><style>.b1629b46-4c08-4e17-a0c2-b179da4d56f9,.bcb04363-67d6-4477-be59-043103bc85f0{fill:#fff;}.b1629b46-4c08-4e17-a0c2-b179da4d56f9{fill-rule:evenodd;}</style></defs><path class="bcb04363-67d6-4477-be59-043103bc85f0" d="M98.33,171.68a69.23,69.23,0,1,1,69.23-69.23A69.31,69.31,0,0,1,98.33,171.68Zm0-131.77a62.54,62.54,0,1,0,62.54,62.54A62.62,62.62,0,0,0,98.33,39.91Z"/><path class="bcb04363-67d6-4477-be59-043103bc85f0" d="M65.13,133.28l1.11-2.84a33.53,33.53,0,0,0,2.2-15c-3.2-3.83-7.67-9.47-7.67-19C60.77,88,64.89,80,72.38,74A44.16,44.16,0,0,1,100,64.83c21.62,0,39.21,14.22,39.21,31.69C139.18,116,119,128,100.31,128a62.92,62.92,0,0,1-16-2.25l-.28-.07-.14.09c-3.42,2.11-6.13,3.78-15.8,6.61ZM100,67.83a41.15,41.15,0,0,0-25.71,8.52c-6.77,5.42-10.49,12.59-10.49,20.17,0,8.72,4.17,13.7,7.22,17.34l.31.37.1.55A37.63,37.63,0,0,1,70,128.7c7-2.21,9.27-3.6,12.27-5.44l1.21-.75,1.5.37A60.48,60.48,0,0,0,100.31,125c17.26,0,35.87-10.9,35.87-28.52C136.18,80.7,119.94,67.83,100,67.83Z"/><path class="bcb04363-67d6-4477-be59-043103bc85f0" d="M102.1,105.89l-3,0a11,11,0,0,1,1.78-6.32,21.83,21.83,0,0,1,2.54-2.69c2-1.88,4-3.82,4-6.5,0-4.53-4-6.9-7.92-6.9-3.77,0-8,2-8.74,7.57l-3-.37c.78-6.2,5.38-10.2,11.72-10.2s10.92,4.17,10.92,9.9c0,4-2.75,6.58-5,8.68a20.86,20.86,0,0,0-2.2,2.3A8.17,8.17,0,0,0,102.1,105.89Z"/><path class="b1629b46-4c08-4e17-a0c2-b179da4d56f9" d="M100.6,115.13a1.46,1.46,0,1,0-1.46-1.46A1.46,1.46,0,0,0,100.6,115.13Z"/></svg>