<svg id="eb071a83-8bbf-4909-9b09-9b055d34ebd9" data-name="Layer 1" xmlns="http://www.w3.org/2000/svg" viewBox="0 0 200 200"><defs><style>.ba42e2a1-1bc4-4346-a672-ade1470e2f0a{fill:#fff;}</style></defs><path class="ba42e2a1-1bc4-4346-a672-ade1470e2f0a" d="M100,33.63a69.23,69.23,0,1,0,69.23,69.23A69.31,69.31,0,0,0,100,33.63Zm0,131.77a62.54,62.54,0,1,1,62.54-62.54A62.62,62.62,0,0,1,100,165.4Z"/><path class="ba42e2a1-1bc4-4346-a672-ade1470e2f0a" d="M98.17,103.27a8.55,8.55,0,1,0,8.55,8.55A8.56,8.56,0,0,0,98.17,103.27Zm0,14.1a5.55,5.55,0,1,1,5.55-5.55A5.56,5.56,0,0,1,98.17,117.37Z"/><path class="ba42e2a1-1bc4-4346-a672-ade1470e2f0a" d="M94.87,74.66a4.53,4.53,0,1,0-4.54-4.53A4.53,4.53,0,0,0,94.87,74.66Zm0-6.06a1.53,1.53,0,1,1-1.54,1.53A1.53,1.53,0,0,1,94.87,68.6Z"/><path class="ba42e2a1-1bc4-4346-a672-ade1470e2f0a" d="M113.24,108.62c-2.79-5.86-5.37-12.16-5.37-18.53V86.84a4.23,4.23,0,0,0-1.5-8.19H90a4.23,4.23,0,0,0-1.5,8.19v3.25c0,6.37-2.58,12.67-5.37,18.52l-10.24,21.5a8.19,8.19,0,0,0,7.32,11.72h36a8.17,8.17,0,0,0,8.13-8.19,8.07,8.07,0,0,0-.81-3.53ZM90,81.65h16.41a1.24,1.24,0,1,1,0,2.47H90a1.24,1.24,0,1,1,0-2.47Zm26.2,57.18h-36a5.17,5.17,0,0,1-5.12-5.19,5.24,5.24,0,0,1,.51-2.25L85.8,109.9c2.94-6.17,5.66-12.84,5.66-19.81v-3h13.41v3c0,7,2.72,13.64,5.66,19.82l10.24,21.49a5.17,5.17,0,0,1-4.61,7.43Z"/><path class="ba42e2a1-1bc4-4346-a672-ade1470e2f0a" d="M103.64,64.42a5.55,5.55,0,1,0-5.54-5.55A5.56,5.56,0,0,0,103.64,64.42Zm0-8.09a2.55,2.55,0,1,1-2.54,2.54A2.55,2.55,0,0,1,103.64,56.33Z"/></svg>